<?xml version="1.0" standalone="no"?>
<!DOCTYPE svg PUBLIC "-//W3C//DTD SVG 20010904//EN"
 "http://www.w3.org/TR/2001/REC-SVG-20010904/DTD/svg10.dtd">
<svg version="1.0" xmlns="http://www.w3.org/2000/svg"
 width="339.000000pt" height="394.000000pt" viewBox="0 0 339.000000 394.000000"
 preserveAspectRatio="xMidYMid meet">

<g transform="translate(0.000000,394.000000) scale(0.100000,-0.100000)"
fill="#000000" stroke="none">
<path d="M700 3655 l0 -65 70 0 70 0 0 -65 0 -65 65 0 65 0 0 -65 0 -65 65 0
65 0 0 65 0 65 -65 0 -65 0 0 65 0 65 -65 0 -65 0 0 65 0 65 -70 0 -70 0 0
-65z"/>
<path d="M1230 3590 l0 -130 65 0 65 0 0 130 0 130 -65 0 -65 0 0 -130z"/>
<path d="M704 3187 c-3 -8 -4 -39 -2 -68 l3 -54 130 0 130 0 0 65 0 65 -128 3
c-102 2 -128 0 -133 -11z"/>
<path d="M1360 3135 l0 -64 -62 -3 -63 -3 -3 -787 -2 -788 -130 0 -130 0 0 65
0 65 -130 0 -129 0 -3 63 -3 62 -132 3 -133 3 0 -66 0 -65 -65 0 -65 0 0 -135
0 -135 65 0 65 0 0 -65 0 -65 65 0 65 0 0 -65 0 -65 65 0 65 0 0 -65 0 -65 70
0 70 0 0 -65 0 -65 65 0 65 0 0 -65 0 -64 63 -3 62 -3 3 -67 3 -68 64 0 65 0
0 -65 0 -65 65 0 65 0 0 -65 0 -65 593 2 592 3 3 62 3 63 64 0 65 0 0 65 0 65
65 0 64 0 3 68 3 67 63 3 62 3 0 589 0 590 -65 0 -65 0 0 65 0 65 -200 0 -200
0 0 65 0 65 -195 0 -194 0 -3 68 -3 67 -127 3 -128 3 -2 392 -3 392 -65 5
c-60 5 -64 7 -65 30 -1 14 -2 42 -3 63 l-2 37 -130 0 -130 0 0 -65z m261 -632
c1 -307 1 -589 0 -627 -1 -38 1 -82 4 -97 6 -28 8 -29 71 -29 l64 0 0 195 0
195 130 0 130 0 0 -195 0 -195 65 0 65 0 0 130 0 130 130 0 130 0 0 -130 0
-131 68 3 67 3 3 63 3 62 129 0 130 0 0 -590 0 -590 -65 0 -65 0 0 -70 0 -69
-67 -3 -68 -3 -3 -62 -3 -63 -589 0 -590 0 0 65 0 65 -65 0 -65 0 0 70 0 70
-65 0 -65 0 0 65 0 65 -65 0 -65 0 0 65 0 65 -65 0 -65 0 0 65 0 65 -65 0 -64
0 -3 63 -3 62 -67 3 -68 3 0 64 0 65 -65 0 -65 0 0 135 0 135 130 0 129 0 3
-67 3 -68 133 -3 132 -3 0 -64 0 -65 130 0 130 0 0 65 0 64 63 3 62 3 3 788 2
787 130 0 130 0 1 -557z"/>
</g>
</svg>
